<?xml version="1.0" encoding="utf-8"?>
<svg xmlns="http://www.w3.org/2000/svg" width="495" height="185" xmlns:bx="https://boxy-svg.com">
  <defs>
    <bx:export>
      <bx:file format="svg" href="#object-0"/>
      <bx:file format="svg" href="#object-1" path="Untitled 2.svg"/>
      <bx:file format="svg" href="#object-2" path="Untitled 3.svg"/>
    </bx:export>
  </defs>
  <path d="m34.601 9.419 3.807-.04c3.43-.036 6.86-.045 10.29-.048q3.219-.005 6.438-.022 11.247-.055 22.495-.05c6.974.002 13.947-.04 20.921-.103a1967 1967 0 0 1 18.006-.071c3.578 0 7.156-.01 10.735-.053 3.993-.046 7.983-.028 11.976-.004l3.563-.068c6.056.093 9.433.608 13.815 4.973A201 201 0 0 1 160 18a103 103 0 0 0 4.437 3.625c4.68 3.665 9.289 7.407 13.875 11.188l2.208 1.818a1149 1149 0 0 1 15.37 12.905A582 582 0 0 0 200 51l1.866 1.615c2.536 1.646 3.913 1.759 6.914 1.756l2.923.02c1.057-.01 2.113-.017 3.202-.026l3.409.01c3.783.006 7.566-.008 11.35-.022q4.06 0 8.12.007 8.754.006 17.508-.01c8.448-.016 16.895-.01 25.342.001q20.574.029 41.148.028h2.488q13.736 0 27.47-.011l2.494-.002 2.49-.002 4.972-.004 2.482-.002q20.49-.014 40.979.025 12.635.022 25.271-.011 8.662-.021 17.325.005 4.995.016 9.992-.01c3.614-.018 7.227-.006 10.842.014l3.175-.039c6.611.079 11.165 1.277 16.238 5.658 3.774 5.079 3.432 10.403 3.404 16.484l.02 3.16c.02 3.44.015 6.88.01 10.32l.015 7.189q.014 7.529-.003 15.058c-.011 6.427.009 12.853.038 19.28.018 4.948.018 9.895.012 14.843q0 3.555.019 7.108a1030 1030 0 0 1-.013 9.944l.029 2.956c-.066 6.076-.75 9.808-4.531 14.658-5.054 3.467-8.832 4.584-14.992 4.506l-2.36.019c-2.608.015-5.215.002-7.823-.01q-2.835.008-5.669.02c-5.19.02-10.381.013-15.572.003-5.598-.007-11.197.009-16.796.022-10.967.021-21.934.021-32.902.013q-13.368-.008-26.738.001l-3.842.003-7.727.006a38878 38878 0 0 1-70.412-.008q-32.134-.021-64.27.022a41828 41828 0 0 1-79.911.033l-3.827-.001q-13.354-.002-26.707.022a8764 8764 0 0 1-32.546-.005 3093 3093 0 0 0-16.609.004q-7.6.024-15.201-.014a569 569 0 0 0-5.501.011c-16.913.11-16.913.11-22.26-4.183-3.921-4.3-4.71-8.268-4.723-13.947l-.03-3.895.014-4.237-.02-4.49c-.019-4.057-.018-8.112-.012-12.168.003-3.39-.003-6.78-.009-10.169q-.02-11.997-.001-23.995c.011-8.243-.003-16.486-.03-24.73q-.032-10.627-.022-21.256.006-6.343-.017-12.685-.021-5.966.008-11.93.005-2.185-.01-4.37C10.389 19.421 10.389 19.421 15 14c6.054-4.907 12.037-4.593 19.601-4.581" fill="#231d1f" style="" id="object-0"/>
  <path d="M 34.601 9.419 L 38.408 9.379 C 41.838 9.343 45.268 9.334 48.698 9.331 C 50.844 9.328 52.99 9.32 55.136 9.309 C 62.634 9.272 70.132 9.256 77.631 9.259 C 84.605 9.261 91.578 9.219 98.552 9.156 C 104.554 9.105 110.556 9.081 116.558 9.085 C 120.136 9.085 123.714 9.075 127.293 9.032 C 131.286 8.986 135.276 9.004 139.269 9.028 L 142.832 8.96 C 148.888 9.053 152.265 9.568 156.647 13.933 C 157.782 15.274 158.9 16.63 160 18 C 161.445 19.249 162.925 20.458 164.437 21.625 C 169.117 25.29 173.726 29.032 178.312 32.813 L 180.52 34.631 C 185.681 38.888 190.804 43.19 195.89 47.536 C 197.255 48.697 198.625 49.852 200 51 L 201.866 52.615 C 204.402 54.261 205.779 54.374 208.78 54.371 L 211.703 54.391 C 212.76 54.381 213.816 54.374 214.905 54.365 L 218.314 54.375 C 222.097 54.381 225.88 54.367 229.664 54.353 C 232.371 54.353 235.077 54.355 237.784 54.36 C 243.62 54.364 249.456 54.361 255.292 54.35 C 263.74 54.334 272.187 54.34 280.634 54.351 C 294.35 54.37 308.066 54.38 321.782 54.379 L 324.27 54.379 C 333.427 54.379 342.584 54.375 351.74 54.368 L 354.234 54.366 L 356.724 54.364 L 361.696 54.36 L 364.178 54.358 C 377.838 54.349 391.498 54.357 405.157 54.383 C 413.58 54.398 422.004 54.394 430.428 54.372 C 436.203 54.358 441.978 54.36 447.753 54.377 C 451.083 54.388 454.414 54.384 457.745 54.367 C 461.359 54.349 464.972 54.361 468.587 54.381 L 471.762 54.342 C 478.373 54.421 482.927 55.619 488 60 C 491.774 65.079 491.432 70.403 491.404 76.484 L 491.424 79.644 C 491.444 83.084 491.439 86.524 491.434 89.964 L 491.449 97.153 C 491.458 102.172 491.457 107.192 491.446 112.211 C 491.435 118.638 491.455 125.064 491.484 131.491 C 491.502 136.439 491.502 141.386 491.496 146.334 C 491.496 148.704 491.502 151.073 491.515 153.442 C 491.527 156.757 491.522 160.071 491.502 163.386 L 491.531 166.342 C 491.465 172.418 490.781 176.15 487 181 C 481.946 184.467 478.168 185.584 472.008 185.506 L 469.648 185.525 C 467.04 185.54 464.433 185.527 461.825 185.515 C 459.935 185.52 458.045 185.527 456.156 185.535 C 450.966 185.555 445.775 185.548 440.584 185.538 C 434.986 185.531 429.387 185.547 423.788 185.56 C 412.821 185.581 401.854 185.581 390.886 185.573 C 381.974 185.568 373.061 185.568 364.148 185.574 L 360.306 185.577 L 352.579 185.583 C 329.106 185.602 305.64 185.599 282.167 185.575 C 260.744 185.561 239.321 185.568 217.897 185.597 C 191.261 185.633 164.622 185.644 137.986 185.63 L 134.159 185.629 C 125.256 185.628 116.354 185.635 107.452 185.651 C 96.604 185.669 85.754 185.668 74.906 185.646 C 69.37 185.632 63.833 185.634 58.297 185.65 C 53.23 185.666 48.163 185.661 43.096 185.636 C 41.262 185.631 39.429 185.634 37.595 185.647 C 20.682 185.757 20.682 185.757 15.335 181.464 C 11.414 177.164 10.625 173.196 10.612 167.517 L 10.582 163.622 L 10.596 159.385 L 10.576 154.895 C 10.557 150.838 10.558 146.783 10.564 142.727 C 10.567 139.337 10.561 135.947 10.555 132.558 C 10.542 124.56 10.541 116.562 10.554 108.563 C 10.565 100.32 10.551 92.077 10.524 83.833 C 10.503 76.748 10.495 69.663 10.502 62.577 C 10.506 58.348 10.5 54.12 10.485 49.892 C 10.471 45.915 10.474 41.938 10.493 37.962 C 10.496 36.505 10.493 35.049 10.483 33.592 C 10.389 19.421 10.389 19.421 15 14 C 21.054 9.093 27.037 9.407 34.601 9.419 M 17 20 C 15.636 22.728 15.868 24.885 15.86 27.94 L 15.842 31.776 L 15.839 36.009 L 15.824 40.449 C 15.811 44.476 15.803 48.502 15.8 52.529 L 15.788 60.075 C 15.775 67.941 15.766 75.807 15.761 83.674 C 15.756 92.759 15.74 101.844 15.711 110.929 C 15.689 117.949 15.678 124.968 15.677 131.987 C 15.677 136.18 15.669 140.374 15.652 144.567 C 15.637 148.514 15.633 152.459 15.642 156.404 C 15.643 157.852 15.639 159.3 15.629 160.747 C 15.616 162.725 15.624 164.702 15.633 166.68 L 15.628 170.032 C 16.057 173.452 16.896 175.283 19 178 C 22.234 180.07 24.817 180.249 28.615 180.246 L 32.101 180.258 L 35.933 180.241 C 37.29 180.241 38.646 180.243 40.003 180.246 C 43.733 180.25 47.463 180.242 51.194 180.232 C 55.216 180.224 59.238 180.226 63.26 180.228 C 70.229 180.229 77.198 180.223 84.167 180.211 C 94.246 180.196 104.317 180.188 114.396 180.187 C 130.744 180.182 147.091 180.17 163.438 180.151 C 179.32 180.132 195.202 180.119 211.083 180.11 L 214.049 180.108 L 228.778 180.101 C 269.518 180.08 310.259 180.046 351 180 C 343.707 172.678 336.015 165.949 327.984 159.45 C 324.612 156.682 258.652 100.703 258.652 100.703 C 254.086 96.867 249.465 93.096 244.836 89.336 C 240.358 85.648 235.972 81.854 231.574 78.07 C 228.041 75.032 224.494 72.012 220.937 69 C 220.414 68.555 219.89 68.11 219.35 67.653 C 217.903 66.431 216.453 65.214 215 64 L 212.691 61.813 C 210.021 60.014 208.684 59.635 205.605 59.09 C 200.615 58.14 197.929 56.01 194.312 52.563 C 193.101 51.466 191.888 50.372 190.672 49.281 C 190.062 48.73 189.454 48.178 188.826 47.609 C 186.008 45.125 183.043 42.847 180.062 40.563 C 174.332 36.134 168.834 31.48 163.412 26.678 C 162.275 25.675 161.128 24.683 159.972 23.702 C 158.655 22.565 157.368 21.395 156.112 20.192 C 149.792 14.566 144.782 14 136.507 14.126 L 132.808 14.099 C 129.486 14.085 126.164 14.094 122.842 14.126 C 119.353 14.151 115.865 14.14 112.376 14.135 C 106.523 14.131 100.671 14.155 94.818 14.197 C 88.06 14.245 81.304 14.25 74.547 14.232 C 68.029 14.216 61.512 14.228 54.994 14.253 C 52.227 14.263 49.461 14.264 46.694 14.257 C 42.83 14.255 38.968 14.277 35.104 14.321 L 31.643 14.301 C 24.982 14.407 21.513 14.945 17 20" fill="#3f3f3f" id="object-1"/>
  <path d="M 34.601 9.573 L 38.408 9.533 C 41.838 9.497 45.268 9.488 48.698 9.485 C 50.844 9.481 52.99 9.474 55.136 9.463 C 62.634 9.426 70.132 9.409 77.631 9.413 C 84.605 9.415 91.578 9.373 98.552 9.31 C 104.554 9.259 110.556 9.235 116.558 9.239 C 120.136 9.239 123.714 9.229 127.293 9.186 C 131.286 9.14 135.276 9.158 139.269 9.182 L 142.832 9.114 C 148.888 9.207 152.265 9.722 156.647 14.087 C 157.782 15.428 158.9 16.783 160 18.154 C 161.445 19.403 162.925 20.612 164.437 21.779 C 169.117 25.444 173.726 29.186 178.312 32.967 L 180.52 34.785 C 185.681 39.042 190.804 43.343 195.89 47.69 C 197.255 48.851 198.625 50.005 200 51.154 L 201.866 52.769 C 204.402 54.415 205.779 54.528 208.78 54.525 L 211.703 54.545 C 212.76 54.535 213.816 54.528 214.905 54.519 L 218.314 54.529 C 222.097 54.535 225.88 54.521 229.664 54.507 C 232.371 54.507 235.077 54.509 237.784 54.514 C 243.62 54.518 249.456 54.514 255.292 54.504 C 263.74 54.488 272.187 54.494 280.634 54.505 C 294.35 54.524 308.066 54.533 321.782 54.533 L 324.27 54.533 C 333.427 54.533 342.584 54.529 351.74 54.522 L 354.234 54.52 L 356.724 54.518 L 361.696 54.514 L 364.178 54.512 C 377.838 54.502 391.498 54.511 405.157 54.537 C 413.58 54.551 422.004 54.548 430.428 54.526 C 436.203 54.512 441.978 54.513 447.753 54.531 C 451.083 54.541 454.414 54.538 457.745 54.521 C 461.359 54.503 464.972 54.515 468.587 54.535 L 471.762 54.496 C 478.373 54.575 482.927 55.773 488 60.154 C 491.774 65.233 491.432 70.557 491.404 76.638 L 491.424 79.798 C 491.444 83.238 491.439 86.678 491.434 90.118 L 491.449 97.307 C 491.458 102.326 491.457 107.345 491.446 112.365 C 491.435 118.792 491.455 125.218 491.484 131.645 C 491.502 136.593 491.502 141.54 491.496 146.488 C 491.496 148.858 491.502 151.227 491.515 153.596 C 491.527 156.91 491.522 160.225 491.502 163.54 L 491.531 166.496 C 491.465 172.572 490.781 176.304 487 181.154 C 481.946 184.621 478.168 185.738 472.008 185.66 L 469.648 185.679 C 467.04 185.694 464.433 185.681 461.825 185.669 C 459.935 185.674 458.045 185.681 456.156 185.689 C 450.966 185.709 445.775 185.702 440.584 185.692 C 434.986 185.685 429.387 185.701 423.788 185.714 C 412.821 185.735 401.854 185.735 390.886 185.727 C 381.974 185.721 373.061 185.722 364.148 185.728 L 360.306 185.731 L 352.579 185.737 C 329.106 185.755 305.64 185.753 282.167 185.729 C 260.744 185.715 239.321 185.722 217.897 185.751 C 191.261 185.787 164.622 185.798 137.986 185.784 L 134.159 185.783 C 125.256 185.781 116.354 185.789 107.452 185.805 C 96.604 185.823 85.754 185.821 74.906 185.8 C 69.37 185.786 63.833 185.787 58.297 185.804 C 53.23 185.82 48.163 185.815 43.096 185.79 C 41.262 185.784 39.429 185.788 37.595 185.801 C 20.682 185.911 20.682 185.911 15.335 181.618 C 11.414 177.318 10.625 173.35 10.612 167.671 L 10.582 163.776 L 10.596 159.539 L 10.576 155.049 C 10.557 150.992 10.558 146.937 10.564 142.881 C 10.567 139.491 10.561 136.101 10.555 132.712 C 10.542 124.714 10.541 116.715 10.554 108.717 C 10.565 100.474 10.551 92.231 10.524 83.987 C 10.503 76.902 10.495 69.817 10.502 62.731 C 10.506 58.502 10.5 54.274 10.485 50.046 C 10.471 46.068 10.474 42.092 10.493 38.116 C 10.496 36.659 10.493 35.202 10.483 33.746 C 10.389 19.575 10.389 19.575 15 14.154 C 21.054 9.247 27.037 9.561 34.601 9.573 M 17 20.154 C 15.636 22.882 15.868 25.039 15.86 28.094 L 15.842 31.93 L 15.839 36.163 L 15.824 40.603 C 15.811 44.629 15.803 48.656 15.8 52.683 L 15.788 60.229 C 15.775 68.095 15.766 75.961 15.761 83.828 C 15.756 92.913 15.74 101.998 15.711 111.083 C 15.689 118.103 15.678 125.122 15.677 132.141 C 15.677 136.334 15.669 140.527 15.652 144.721 C 15.637 148.667 15.633 152.613 15.642 156.558 C 15.643 158.006 15.639 159.453 15.629 160.901 C 15.616 162.879 15.624 164.856 15.633 166.834 L 15.628 170.186 C 16.057 173.606 16.896 175.437 19 178.154 C 22.618 180.644 26.37 180.434 30.6 180.408 L 32.942 180.418 C 35.548 180.427 38.153 180.421 40.759 180.415 L 46.401 180.426 C 51.581 180.436 56.762 180.434 61.943 180.43 C 67.525 180.428 73.107 180.437 78.689 180.444 C 89.63 180.456 100.57 180.46 111.511 180.456 C 120.401 180.454 129.291 180.456 138.18 180.461 L 142.009 180.462 L 149.709 180.466 C 166.951 180.474 184.193 180.477 201.435 180.474 L 203.478 180.474 L 213.735 180.471 L 215.792 180.471 L 219.912 180.469 C 241.28 180.464 262.649 180.471 284.018 180.49 C 308.017 180.511 332.015 180.52 356.013 180.518 C 368.723 180.514 381.433 180.519 394.144 180.532 C 404.964 180.544 415.784 180.545 426.604 180.534 C 432.128 180.526 437.65 180.528 443.174 180.539 C 448.227 180.548 453.279 180.546 458.332 180.532 C 460.163 180.529 461.995 180.532 463.827 180.54 C 466.31 180.55 468.792 180.542 471.274 180.529 L 473.448 180.551 C 477.8 180.503 480.525 179.797 484 177.154 C 485.922 174.324 486.252 172.062 486.26 168.682 L 486.282 165.985 L 486.275 163.049 L 486.29 159.939 C 486.304 156.543 486.303 153.147 486.3 149.752 L 486.314 142.675 C 486.321 137.73 486.321 132.785 486.316 127.839 C 486.31 121.499 486.326 115.159 486.35 108.819 C 486.365 103.948 486.366 99.076 486.363 94.204 C 486.363 91.866 486.368 89.529 486.378 87.191 C 486.391 83.923 486.384 80.656 486.372 77.389 L 486.395 74.459 C 486.348 67.796 486.348 67.796 483 62.154 C 479.987 60.307 477.746 59.907 474.237 59.923 L 471.325 59.921 L 468.135 59.95 L 464.739 59.956 C 460.97 59.964 457.201 59.987 453.432 60.01 L 445.341 60.033 C 440.278 60.046 435.216 60.063 430.154 60.084 C 420.196 60.126 410.238 60.141 400.28 60.147 L 388.442 60.155 C 379.477 60.161 370.512 60.169 361.547 60.18 L 359.064 60.183 C 345.804 60.201 332.544 60.251 319.285 60.313 C 305.66 60.373 292.034 60.394 278.408 60.377 C 270.011 60.365 261.615 60.393 253.219 60.459 C 247.456 60.501 241.692 60.507 235.929 60.477 C 232.61 60.46 229.29 60.473 225.971 60.516 C 202.191 60.82 202.191 60.82 193.195 52.495 C 192.255 51.55 191.33 50.591 190.419 49.618 C 187.912 47.032 185.091 44.814 182.312 42.529 C 181.23 41.609 180.149 40.687 179.07 39.763 C 175.465 36.69 171.825 33.666 168.09 30.751 C 165.85 28.947 163.91 27.022 161.961 24.909 C 152.861 15.606 144.804 13.736 131.985 13.543 C 128.7 13.554 125.416 13.596 122.132 13.671 C 118.662 13.735 115.192 13.727 111.722 13.728 C 105.911 13.741 100.101 13.803 94.29 13.898 C 87.584 14.008 80.88 14.056 74.174 14.066 C 66.998 14.078 59.823 14.127 52.648 14.192 C 50.592 14.208 48.536 14.22 46.48 14.228 C 42.65 14.248 38.823 14.311 34.994 14.38 L 31.564 14.387 C 24.944 14.55 21.496 15.146 17 20.154" fill="#585858" style="" id="object-2"/>
</svg>