<svg 
	xmlns="http://www.w3.org/2000/svg" width="495" height="185">
	<path d="m34.601 9.419 3.807-.04c3.43-.036 6.86-.045 10.29-.048q3.219-.005 6.438-.022 11.247-.055 22.495-.05c6.974.002 13.947-.04 20.921-.103a1967 1967 0 0 1 18.006-.071c3.578 0 7.156-.01 10.735-.053 3.993-.046 7.983-.028 11.976-.004l3.563-.068c6.056.093 9.433.608 13.815 4.973A201 201 0 0 1 160 18a103 103 0 0 0 4.437 3.625c4.68 3.665 9.289 7.407 13.875 11.188l2.208 1.818a1149 1149 0 0 1 15.37 12.905A582 582 0 0 0 200 51l1.866 1.615c2.536 1.646 3.913 1.759 6.914 1.756l2.923.02c1.057-.01 2.113-.017 3.202-.026l3.409.01c3.783.006 7.566-.008 11.35-.022q4.06 0 8.12.007 8.754.006 17.508-.01c8.448-.016 16.895-.01 25.342.001q20.574.029 41.148.028h2.488q13.736 0 27.47-.011l2.494-.002 2.49-.002 4.972-.004 2.482-.002q20.49-.014 40.979.025 12.635.022 25.271-.011 8.662-.021 17.325.005 4.995.016 9.992-.01c3.614-.018 7.227-.006 10.842.014l3.175-.039c6.611.079 11.165 1.277 16.238 5.658 3.774 5.079 3.432 10.403 3.404 16.484l.02 3.16c.02 3.44.015 6.88.01 10.32l.015 7.189q.014 7.529-.003 15.058c-.011 6.427.009 12.853.038 19.28.018 4.948.018 9.895.012 14.843q0 3.555.019 7.108a1030 1030 0 0 1-.013 9.944l.029 2.956c-.066 6.076-.75 9.808-4.531 14.658-5.054 3.467-8.832 4.584-14.992 4.506l-2.36.019c-2.608.015-5.215.002-7.823-.01q-2.835.008-5.669.02c-5.19.02-10.381.013-15.572.003-5.598-.007-11.197.009-16.796.022-10.967.021-21.934.021-32.902.013q-13.368-.008-26.738.001l-3.842.003-7.727.006a38878 38878 0 0 1-70.412-.008q-32.134-.021-64.27.022a41828 41828 0 0 1-79.911.033l-3.827-.001q-13.354-.002-26.707.022a8764 8764 0 0 1-32.546-.005 3093 3093 0 0 0-16.609.004q-7.6.024-15.201-.014a569 569 0 0 0-5.501.011c-16.913.11-16.913.11-22.26-4.183-3.921-4.3-4.71-8.268-4.723-13.947l-.03-3.895.014-4.237-.02-4.49c-.019-4.057-.018-8.112-.012-12.168.003-3.39-.003-6.78-.009-10.169q-.02-11.997-.001-23.995c.011-8.243-.003-16.486-.03-24.73q-.032-10.627-.022-21.256.006-6.343-.017-12.685-.021-5.966.008-11.93.005-2.185-.01-4.37C10.389 19.421 10.389 19.421 15 14c6.054-4.907 12.037-4.593 19.601-4.581" fill="#231d1f"/><path d="m34.601 9.419 3.807-.04c3.43-.036 6.86-.045 10.29-.048q3.219-.005 6.438-.022 11.247-.055 22.495-.05c6.974.002 13.947-.04 20.921-.103a1967 1967 0 0 1 18.006-.071c3.578 0 7.156-.01 10.735-.053 3.993-.046 7.983-.028 11.976-.004l3.563-.068c6.056.093 9.433.608 13.815 4.973A201 201 0 0 1 160 18a103 103 0 0 0 4.437 3.625c4.68 3.665 9.289 7.407 13.875 11.188l2.208 1.818a1149 1149 0 0 1 15.37 12.905A582 582 0 0 0 200 51l1.866 1.615c2.536 1.646 3.913 1.759 6.914 1.756l2.923.02c1.057-.01 2.113-.017 3.202-.026l3.409.01c3.783.006 7.566-.008 11.35-.022q4.06 0 8.12.007 8.754.006 17.508-.01c8.448-.016 16.895-.01 25.342.001q20.574.029 41.148.028h2.488q13.736 0 27.47-.011l2.494-.002 2.49-.002 4.972-.004 2.482-.002q20.49-.014 40.979.025 12.635.022 25.271-.011 8.662-.021 17.325.005 4.995.016 9.992-.01c3.614-.018 7.227-.006 10.842.014l3.175-.039c6.611.079 11.165 1.277 16.238 5.658 3.774 5.079 3.432 10.403 3.404 16.484l.02 3.16c.02 3.44.015 6.88.01 10.32l.015 7.189q.014 7.529-.003 15.058c-.011 6.427.009 12.853.038 19.28.018 4.948.018 9.895.012 14.843q0 3.555.019 7.108a1030 1030 0 0 1-.013 9.944l.029 2.956c-.066 6.076-.75 9.808-4.531 14.658-5.054 3.467-8.832 4.584-14.992 4.506l-2.36.019c-2.608.015-5.215.002-7.823-.01q-2.835.008-5.669.02c-5.19.02-10.381.013-15.572.003-5.598-.007-11.197.009-16.796.022-10.967.021-21.934.021-32.902.013q-13.368-.008-26.738.001l-3.842.003-7.727.006a38878 38878 0 0 1-70.412-.008q-32.134-.021-64.27.022a41828 41828 0 0 1-79.911.033l-3.827-.001q-13.354-.002-26.707.022a8764 8764 0 0 1-32.546-.005 3093 3093 0 0 0-16.609.004q-7.6.024-15.201-.014a569 569 0 0 0-5.501.011c-16.913.11-16.913.11-22.26-4.183-3.921-4.3-4.71-8.268-4.723-13.947l-.03-3.895.014-4.237-.02-4.49c-.019-4.057-.018-8.112-.012-12.168.003-3.39-.003-6.78-.009-10.169q-.02-11.997-.001-23.995c.011-8.243-.003-16.486-.03-24.73q-.032-10.627-.022-21.256.006-6.343-.017-12.685-.021-5.966.008-11.93.005-2.185-.01-4.37C10.389 19.421 10.389 19.421 15 14c6.054-4.907 12.037-4.593 19.601-4.581M17 20c-1.364 2.728-1.132 4.885-1.14 7.94l-.018 3.836-.003 4.233-.015 4.44q-.019 6.04-.024 12.08l-.012 7.546q-.02 11.799-.027 23.599-.007 13.628-.05 27.255-.033 10.53-.034 21.058 0 6.29-.025 12.58-.023 5.92-.01 11.837.002 2.172-.013 4.343c-.013 1.978-.005 3.955.004 5.933l-.005 3.352c.429 3.42 1.268 5.251 3.372 7.968 3.234 2.07 5.817 2.249 9.615 2.246l3.486.012 3.832-.017q2.035 0 4.07.005c3.73.004 7.46-.004 11.191-.014 4.022-.008 8.044-.006 12.066-.004q10.453.001 20.907-.017a23431 23431 0 0 1 30.229-.024q24.522-.007 49.042-.036 23.823-.028 47.645-.041l2.966-.002 14.729-.007q61.11-.032 122.222-.101c-7.293-7.322-14.985-14.051-23.016-20.55-3.372-2.768-6.68-5.602-9.984-8.45-11.525-10.127-11.525-10.127-24-19l-1.75 2.375c-3.04 3.547-4.87 4.469-9.527 4.996-9.686.176-9.686.176-12.715-1.422-4.183-4.195-4.218-8.228-4.258-13.824l-.063-2.184c-.024-3.349.076-5.549 1.829-8.449L269 112c-1.584-4.357-4.98-6.823-8.438-9.687l-1.91-1.61c-4.566-3.836-9.187-7.607-13.816-11.367-4.478-3.688-8.864-7.482-13.262-11.266-3.533-3.038-7.08-6.058-10.637-9.07-.523-.445-1.047-.89-1.587-1.347A991 991 0 0 0 215 64l-2.309-2.187c-2.67-1.799-4.007-2.178-7.086-2.723-4.99-.95-7.676-3.08-11.293-6.527q-1.816-1.645-3.64-3.282c-.61-.551-1.218-1.103-1.846-1.672-2.818-2.484-5.783-4.762-8.764-7.046-5.73-4.429-11.228-9.083-16.65-13.885a240 240 0 0 0-3.44-2.976 101 101 0 0 1-3.86-3.51c-6.32-5.626-11.33-6.192-19.605-6.066l-3.699-.027a705 705 0 0 0-9.966.027c-3.489.025-6.977.014-10.466.009-5.853-.004-11.705.02-17.558.062-6.758.048-13.514.053-20.271.035-6.518-.016-13.035-.004-19.553.021q-4.15.015-8.3.004a974 974 0 0 0-11.59.064l-3.461-.02c-6.661.106-10.13.644-14.643 5.699" fill="#3f3f3f"/><path d="m34.601 9.419 3.807-.04c3.43-.036 6.86-.045 10.29-.048q3.219-.005 6.438-.022 11.247-.055 22.495-.05c6.974.002 13.947-.04 20.921-.103a1967 1967 0 0 1 18.006-.071c3.578 0 7.156-.01 10.735-.053 3.993-.046 7.983-.028 11.976-.004l3.563-.068c6.056.093 9.433.608 13.815 4.973A201 201 0 0 1 160 18a103 103 0 0 0 4.437 3.625c4.68 3.665 9.289 7.407 13.875 11.188l2.208 1.818a1149 1149 0 0 1 15.37 12.905A582 582 0 0 0 200 51l1.866 1.615c2.536 1.646 3.913 1.759 6.914 1.756l2.923.02c1.057-.01 2.113-.017 3.202-.026l3.409.01c3.783.006 7.566-.008 11.35-.022q4.06 0 8.12.007 8.754.006 17.508-.01c8.448-.016 16.895-.01 25.342.001q20.574.029 41.148.028h2.488q13.736 0 27.47-.011l2.494-.002 2.49-.002 4.972-.004 2.482-.002q20.49-.014 40.979.025 12.635.022 25.271-.011 8.662-.021 17.325.005 4.995.016 9.992-.01c3.614-.018 7.227-.006 10.842.014l3.175-.039c6.611.079 11.165 1.277 16.238 5.658 3.774 5.079 3.432 10.403 3.404 16.484l.02 3.16c.02 3.44.015 6.88.01 10.32l.015 7.189q.014 7.529-.003 15.058c-.011 6.427.009 12.853.038 19.28.018 4.948.018 9.895.012 14.843q0 3.555.019 7.108a1030 1030 0 0 1-.013 9.944l.029 2.956c-.066 6.076-.75 9.808-4.531 14.658-5.054 3.467-8.832 4.584-14.992 4.506l-2.36.019c-2.608.015-5.215.002-7.823-.01q-2.835.008-5.669.02c-5.19.02-10.381.013-15.572.003-5.598-.007-11.197.009-16.796.022-10.967.021-21.934.021-32.902.013q-13.368-.008-26.738.001l-3.842.003-7.727.006a38878 38878 0 0 1-70.412-.008q-32.134-.021-64.27.022a41828 41828 0 0 1-79.911.033l-3.827-.001q-13.354-.002-26.707.022a8764 8764 0 0 1-32.546-.005 3093 3093 0 0 0-16.609.004q-7.6.024-15.201-.014a569 569 0 0 0-5.501.011c-16.913.11-16.913.11-22.26-4.183-3.921-4.3-4.71-8.268-4.723-13.947l-.03-3.895.014-4.237-.02-4.49c-.019-4.057-.018-8.112-.012-12.168.003-3.39-.003-6.78-.009-10.169q-.02-11.997-.001-23.995c.011-8.243-.003-16.486-.03-24.73q-.032-10.627-.022-21.256.006-6.343-.017-12.685-.021-5.966.008-11.93.005-2.185-.01-4.37C10.389 19.421 10.389 19.421 15 14c6.054-4.907 12.037-4.593 19.601-4.581M17 20c-1.364 2.728-1.132 4.885-1.14 7.94l-.018 3.836-.003 4.233-.015 4.44q-.019 6.04-.024 12.08l-.012 7.546q-.02 11.799-.027 23.599-.007 13.628-.05 27.255-.033 10.53-.034 21.058 0 6.29-.025 12.58-.023 5.92-.01 11.837.002 2.172-.013 4.343c-.013 1.978-.005 3.955.004 5.933l-.005 3.352c.429 3.42 1.268 5.251 3.372 7.968 3.618 2.49 7.37 2.28 11.6 2.254l2.342.01c2.606.009 5.211.003 7.817-.003l5.642.011c5.18.01 10.361.008 15.542.004 5.582-.002 11.164.007 16.746.014q16.411.018 32.822.012 13.335-.002 26.669.005l3.829.001 7.7.004q25.863.013 51.726.008h2.043l10.257-.003h2.057l4.12-.002q32.052-.007 64.106.021 35.998.032 71.995.028 19.065-.005 38.131.014 16.23.019 32.46.002a5129 5129 0 0 1 16.57.005q7.579.014 15.158-.007 2.747-.004 5.495.008c2.483.01 4.965.002 7.447-.011l2.174.022c4.352-.048 7.077-.754 10.552-3.397 1.922-2.83 2.252-5.092 2.26-8.472l.022-2.697-.007-2.936.015-3.11c.014-3.396.013-6.792.01-10.187l.014-7.077q.01-7.417.002-14.836c-.006-6.34.01-12.68.034-19.02.015-4.871.016-9.743.013-14.615q0-3.506.015-7.013c.013-3.268.006-6.535-.006-9.802l.023-2.93c-.047-6.663-.047-6.663-3.395-12.305-3.013-1.847-5.254-2.247-8.763-2.231l-2.912-.002-3.19.029-3.396.006c-3.769.008-7.538.031-11.307.054l-8.091.023q-7.594.02-15.187.051c-9.958.042-19.916.057-29.874.063l-11.838.008q-13.447.009-26.895.025l-2.483.003c-13.26.018-26.52.068-39.779.13q-20.438.09-40.877.064-12.595-.017-25.189.082a1388 1388 0 0 1-17.29.018 551 551 0 0 0-9.958.039c-23.78.304-23.78.304-32.776-8.021q-1.41-1.417-2.776-2.877c-2.507-2.586-5.328-4.804-8.107-7.089q-1.623-1.38-3.242-2.766c-3.605-3.073-7.245-6.097-10.98-9.012-2.24-1.804-4.18-3.729-6.129-5.842-9.1-9.303-17.157-11.173-29.976-11.366a510 510 0 0 0-9.853.128c-3.47.064-6.94.056-10.41.057-5.811.013-11.621.075-17.432.17-6.706.11-13.41.158-20.116.168-7.176.012-14.351.061-21.526.126q-3.084.024-6.168.036c-3.83.02-7.657.083-11.486.152l-3.43.007c-6.62.163-10.068.759-14.564 5.767" fill="#585858"/><path d="M329.438 97.813C332 98 332 98 334 100c.2 2.845.28 5.591.266 8.438l.005 2.532q.002 2.654-.01 5.306c-.011 2.713 0 5.425.012 8.138q0 2.574-.007 5.148l.012 2.469c-.048 5.74-.048 5.74-2.278 7.969-2.625.125-2.625.125-5 0v-2l-1.66.977c-4.267 1.866-8.778 1.578-13.34 1.023-3.672-2.099-5.498-4.096-7-8a85 85 0 0 1-.437-7.937l-.1-2.131c-.041-4.01.34-5.697 2.94-8.81L310 111l2-2c2.496-.23 2.496-.23 5.438-.187l2.933.019C323 109 323 109 326 110l-.035-2.371c-.01-1.012-.018-2.024-.027-3.067l-.036-3.058c.13-3.336.218-3.436 3.536-3.692" fill="#f0f0f0"/><path d="M146 98c3.541-.146 7.082-.234 10.625-.312l3.027-.127c8.35-.139 8.35-.139 12.02 2.677 3.005 3.566 3.112 5.145 2.777 9.606-.702 3.368-1.796 4.98-4.449 7.156a122 122 0 0 1-7 1l1.026 1.481a769 769 0 0 1 4.536 6.707c.534.768 1.067 1.537 1.616 2.33l1.513 2.275 1.413 2.079c1.15 2.733.703 4.327-.104 7.128-2.25.375-2.25.375-5 0-2.062-2.562-2.062-2.562-4-6l-2.07-3.578L160 127c-2.732-5.268-2.732-5.268-7-9l.016 1.912q.029 4.263.047 8.525l.025 3.01.01 2.862.016 2.65C153 139 153 139 152 140c-2.5.125-2.5.125-5 0-1-1-1-1-1.114-4.877q0-2.595.016-5.19l.005-2.753c.005-2.914.018-5.828.03-8.743q.008-2.954.014-5.912.017-7.262.049-14.525" fill="#f5f5f5"/><path d="M207 109c3.348 1.577 5.326 3.651 7 7 .178 2.6.278 5.148.313 7.75l.087 2.133c.063 5.145-.95 8.08-4.4 12.117-4.905 3.64-12.244 2.681-18 2-3.25-2.312-3.25-2.312-5-5l-2-3c-.696-5.703-1.39-12.26 1.273-17.508 5.738-6.69 12.258-6.376 20.727-5.492" fill="#f0f0f0"/><path d="m279.875 108.625 3.68-.086c4.038.54 5.585 1.621 8.445 4.461 3.5 5.25 2.53 11.888 2 18-1.082 3.53-2.554 6.034-5.707 8.14-5.135 1.925-10.923 1.496-16.293.86-3.25-2.312-3.25-2.312-5-5l-2-3a82 82 0 0 1-.437-7.875l-.1-2.145c-.04-3.98.343-5.74 2.877-8.863 4.505-3.586 6.787-4.431 12.535-4.492" fill="#f1f1f1"/><path d="M358.688 108.5c5.813.072 9.05.682 13.175 4.797 2.6 3.896 2.386 8.143 2.137 12.703l-2 3c-2.063.34-2.063.34-4.57.293l-2.715-.03-2.84-.076-2.863-.04A624 624 0 0 1 352 129v3c2.593.864 4.34 1.176 7.012 1.316l2.295.127 2.38.12 2.417.13q2.947.158 5.896.307a88 88 0 0 1 1 5c-2.226 2.226-7.262 1.232-10.25 1.25l-2.605.063c-6.052.037-9.403-.757-13.926-4.973-1.82-3.494-1.732-6.93-1.719-10.778l-.086-2.275c-.015-4.247.188-5.805 2.992-9.197L350 111c2.812-2.812 4.761-2.4 8.688-2.5" fill="#f5f5f5"/><path d="M387 109c2.27-.246 2.27-.246 5 0 1.95 1.715 1.95 1.715 3.688 3.938 2.271 3 2.271 3 5.312 5.062l.75-1.687c1.513-2.8 3.026-5.025 5.25-7.313 2.75-.312 2.75-.312 5 0 .719 2.25.719 2.25 1 5-1.626 2.283-3.506 4.006-5.531 5.938-1.72 1.98-1.72 1.98-1.414 4.562 1.38 3.653 3.798 5.743 6.547 8.438C414 135 414 135 413.71 137.75L413 140c-2.273.277-2.273.277-5 0-1.914-1.934-1.914-1.934-3.625-4.437-2.436-3.728-2.436-3.728-6.375-5.563l-.687 1.625c-1.747 3.16-3.953 5.643-6.313 8.375l-5-1c.33-5.288 3.484-9.241 7-13h2c-2.053-3.877-3.583-6.61-6.812-9.625L386 114c.188-2.812.188-2.812 1-5" fill="#f1f1f1"/><path d="m231.906 97.867 3.594.008 3.594-.008C242 98 242 98 243 99c.089 2.594.115 5.16.098 7.754l-.005 2.35c-.005 2.486-.018 4.972-.03 7.459l-.014 5.044q-.017 6.196-.049 12.393h7a88 88 0 0 1 1 5c-1 1-1 1-3.041 1.114l-2.65-.016-2.862-.01-3.01-.025-3.021-.014q-3.708-.018-7.416-.049a88 88 0 0 1-1-5l1-1h7v-30h-7a88 88 0 0 1-1-5c1-1 1-1 3.906-1.133" fill="#f5f5f5"/><path d="m276.313 115.734 2.687.016 2.688-.016C284 116 284 116 286 118c.3 3.188.3 3.188.313 7l.05 3.813L286 132c-2.97 1.98-3.657 2.294-7 2.313l-2.062.05C275 134 275 134 273.27 132.891c-1.884-2.806-1.631-5.114-1.582-8.453l.011-3.504c.367-3.579.939-4.778 4.613-5.2" fill="#2c2628"/><path d="m199.438 115.813 2.37-.043C204 116 204 116 207 118c.398 2.934.398 2.934.375 6.438l.023 3.496C207 131 207 131 205.762 132.89c-2.245 1.413-3.685 1.478-6.324 1.422l-2.38-.012C195 134 195 134 193 132a94 94 0 0 1-.125-7.625l.027-2.14c.024-1.746.06-3.49.098-5.235 2.34-1.17 3.834-1.166 6.438-1.187" fill="#2b2628"/><path d="M317.875 115.625c2.888.1 4.055.335 6.625 1.813 2.24 3.827 2.384 7.242 1.5 11.562-2.125 3.063-2.125 3.063-5 5-3.157.505-4.97.695-7.66-1.121-1.987-2.786-1.702-5.064-1.652-8.441l.011-3.504c.475-4.628 1.61-4.867 6.176-5.309" fill="#474747"/><path d="M152 104q3.468-.04 6.938-.062l3.902-.036C166 104 166 104 167 105c.125 3 .125 3 0 6-1 1-1 1-4.16 1.098l-3.903-.035-3.91-.028L152 112z" fill="#2b2628"/><path d="m356.313 115.734 2.687.016 2.688-.016C364 116 364 116 366 118v5h-14c0-6.77 0-6.77 4.313-7.266" fill="#4d4d4d"/><path d="m278.938 115.813 2.714-.043C284 116 284 116 286 118c.125 3.125.125 3.125 0 6-2.466-1.438-4.818-2.856-7.062-4.625-2.009-1.425-3.534-1.946-5.938-2.375 1.666-1.666 3.66-1.171 5.938-1.187" fill="#444344"/>
</svg>