<svg xmlns="http://www.w3.org/2000/svg" width="495" height="185">
	<path d="m25.601 3.419 3.807-.04c3.43-.036 6.86-.045 10.29-.048q3.219-.005 6.438-.022 11.247-.055 22.495-.05c6.974.002 13.947-.04 20.921-.103a1967 1967 0 0 1 18.006-.071c3.578 0 7.156-.01 10.735-.053 3.993-.046 7.983-.028 11.976-.004l3.563-.068c6.056.093 9.433.608 13.815 4.973A201 201 0 0 1 151 12a103 103 0 0 0 4.437 3.625c4.68 3.665 9.288 7.407 13.875 11.188l2.21 1.818a762 762 0 0 1 10.287 8.611l1.77 1.513q2.346 2.014 4.687 4.038L191 45l1.982 1.615c4.611 2.116 9.028 1.79 14.043 1.75l3.412.01c3.78.006 7.56-.008 11.34-.022q4.06 0 8.12.007 8.751.006 17.501-.01c8.443-.016 16.886-.01 25.33.001q20.565.029 41.13.028h2.486q13.727 0 27.455-.011l2.492-.002 2.49-.002 4.97-.004c.819 0 1.637 0 2.48-.002q20.483-.014 40.967.025 12.63.022 25.26-.011 8.657-.021 17.314.005 4.994.016 9.986-.01c3.612-.018 7.223-.006 10.836.014l3.173-.039c6.61.079 11.161 1.278 16.233 5.658 3.774 5.079 3.432 10.403 3.404 16.484l.02 3.16c.02 3.44.015 6.88.01 10.32l.015 7.189q.014 7.529-.003 15.058c-.011 6.427.009 12.853.038 19.28.018 4.948.018 9.895.012 14.843q0 3.555.019 7.108a1030 1030 0 0 1-.013 9.944l.029 2.956c-.066 6.076-.75 9.808-4.531 14.658-5.059 3.471-8.842 4.584-15.007 4.506l-2.366.019c-2.614.015-5.227.002-7.84-.01q-2.841.008-5.681.02c-5.202.02-10.404.013-15.606.003-5.611-.007-11.222.009-16.833.022-10.991.021-21.983.021-32.974.013q-13.399-.008-26.797.001l-3.85.003-7.744.006a39048 39048 0 0 1-70.567-.008q-32.205-.021-64.41.022a42011 42011 0 0 1-80.087.033l-3.835-.001q-13.383-.002-26.766.022-16.309.027-32.618-.005c-5.548-.012-11.096-.015-16.644.004q-7.618.024-15.235-.014a572 572 0 0 0-5.513.011c-16.95.11-16.95.11-22.293-4.183-3.919-4.301-4.71-8.268-4.722-13.947l-.03-3.895.014-4.237-.02-4.49c-.019-4.057-.018-8.112-.012-12.168.003-3.39-.003-6.78-.009-10.169q-.02-11.997-.001-23.995c.011-8.243-.003-16.486-.03-24.73q-.032-10.627-.022-21.256c.003-4.229 0-8.457-.017-12.685q-.021-5.966.008-11.93.005-2.185-.01-4.37C1.389 13.421 1.389 13.421 6 8c6.054-4.907 12.037-4.593 19.601-4.581" fill="#231d1f"/>
	<path d="m25.601 3.419 3.807-.04c3.43-.036 6.86-.045 10.29-.048q3.219-.005 6.438-.022 11.247-.055 22.495-.05c6.974.002 13.947-.04 20.921-.103a1967 1967 0 0 1 18.006-.071c3.578 0 7.156-.01 10.735-.053 3.993-.046 7.983-.028 11.976-.004l3.563-.068c6.056.093 9.433.608 13.815 4.973A201 201 0 0 1 151 12a103 103 0 0 0 4.437 3.625c4.68 3.665 9.288 7.407 13.875 11.188l2.21 1.818a762 762 0 0 1 10.287 8.611l1.77 1.513q2.346 2.014 4.687 4.038L191 45l1.982 1.615c4.611 2.116 9.028 1.79 14.043 1.75l3.412.01c3.78.006 7.56-.008 11.34-.022q4.06 0 8.12.007 8.751.006 17.501-.01c8.443-.016 16.886-.01 25.33.001q20.565.029 41.13.028h2.486q13.727 0 27.455-.011l2.492-.002 2.49-.002 4.97-.004c.819 0 1.637 0 2.48-.002q20.483-.014 40.967.025 12.63.022 25.26-.011 8.657-.021 17.314.005 4.994.016 9.986-.01c3.612-.018 7.223-.006 10.836.014l3.173-.039c6.61.079 11.161 1.278 16.233 5.658 3.774 5.079 3.432 10.403 3.404 16.484l.02 3.16c.02 3.44.015 6.88.01 10.32l.015 7.189q.014 7.529-.003 15.058c-.011 6.427.009 12.853.038 19.28.018 4.948.018 9.895.012 14.843q0 3.555.019 7.108a1030 1030 0 0 1-.013 9.944l.029 2.956c-.066 6.076-.75 9.808-4.531 14.658-5.059 3.471-8.842 4.584-15.007 4.506l-2.366.019c-2.614.015-5.227.002-7.84-.01q-2.841.008-5.681.02c-5.202.02-10.404.013-15.606.003-5.611-.007-11.222.009-16.833.022-10.991.021-21.983.021-32.974.013q-13.399-.008-26.797.001l-3.85.003-7.744.006a39048 39048 0 0 1-70.567-.008q-32.205-.021-64.41.022a42011 42011 0 0 1-80.087.033l-3.835-.001q-13.383-.002-26.766.022-16.309.027-32.618-.005c-5.548-.012-11.096-.015-16.644.004q-7.618.024-15.235-.014a572 572 0 0 0-5.513.011c-16.95.11-16.95.11-22.293-4.183-3.919-4.301-4.71-8.268-4.722-13.947l-.03-3.895.014-4.237-.02-4.49c-.019-4.057-.018-8.112-.012-12.168.003-3.39-.003-6.78-.009-10.169q-.02-11.997-.001-23.995c.011-8.243-.003-16.486-.03-24.73q-.032-10.627-.022-21.256c.003-4.229 0-8.457-.017-12.685q-.021-5.966.008-11.93.005-2.185-.01-4.37C1.389 13.421 1.389 13.421 6 8c6.054-4.907 12.037-4.593 19.601-4.581M8 14c-1.364 2.728-1.132 4.885-1.14 7.94l-.018 3.836-.003 4.233-.015 4.44q-.019 6.04-.024 12.08l-.012 7.546q-.02 11.799-.027 23.599-.007 13.628-.05 27.255-.034 10.53-.034 21.058 0 6.29-.025 12.58-.023 5.92-.01 11.837.002 2.172-.013 4.343c-.013 1.978-.005 3.955.004 5.933l-.005 3.352c.429 3.42 1.268 5.251 3.372 7.968 3.234 2.07 5.817 2.249 9.615 2.246l3.486.012 3.832-.017q2.035 0 4.07.005c3.73.004 7.46-.004 11.191-.014 4.022-.008 8.044-.006 12.066-.004q10.454.001 20.907-.017a23431 23431 0 0 1 30.229-.024q24.522-.007 49.042-.036 23.823-.028 47.645-.041l2.966-.002 14.729-.007q61.11-.032 122.222-.101c-7.293-7.322-14.985-14.051-23.016-20.55-3.372-2.768-6.68-5.603-9.984-8.45l-3.555-3.043a736 736 0 0 1-6.64-5.758l-2.93-2.511-2.57-2.239c-2.142-1.65-2.142-1.65-4.36-1.367-2.027.852-2.027.852-3.73 2.445-3.204 2.13-5.841 1.979-9.653 2.036l-3.933.128c-3.813-.726-5.486-1.623-7.76-4.804-1.651-3.585-1.387-7.142-1.182-11.012l.069-2.418q.064-2.223.165-4.446c.079-2.002.079-4.007.079-6.011-1.952-2.067-1.952-2.067-4.625-4l-3.04-2.375c-.54-.422-1.083-.843-1.64-1.277-2.972-2.364-5.827-4.862-8.695-7.348-4.101-3.537-8.228-7.029-12.438-10.437-4.434-3.6-8.756-7.312-13.062-11.063l-3.852-3.332a515 515 0 0 1-6.734-5.93l-2.789-2.425-2.367-2.106c-2.67-1.653-4.147-2.07-7.16-2.605-4.98-.96-7.675-3.098-11.286-6.54q-1.816-1.645-3.64-3.28l-1.846-1.673c-2.818-2.484-5.783-4.762-8.764-7.046-5.73-4.429-11.228-9.083-16.65-13.885a240 240 0 0 0-3.44-2.976 101 101 0 0 1-3.86-3.51c-6.32-5.626-11.33-6.192-19.605-6.066l-3.699-.027a705 705 0 0 0-9.966.027c-3.489.025-6.977.014-10.466.009-5.853-.004-11.705.02-17.558.062-6.758.048-13.514.053-20.271.035-6.518-.016-13.035-.004-19.553.021q-4.15.015-8.3.004a974 974 0 0 0-11.59.064l-3.461-.02C15.982 8.406 12.513 8.944 8 14" fill="#3f3f3f"/>
	<path d="m25.601 3.419 3.807-.04c3.43-.036 6.86-.045 10.29-.048q3.219-.005 6.438-.022 11.247-.055 22.495-.05c6.974.002 13.947-.04 20.921-.103a1967 1967 0 0 1 18.006-.071c3.578 0 7.156-.01 10.735-.053 3.993-.046 7.983-.028 11.976-.004l3.563-.068c6.056.093 9.433.608 13.815 4.973A201 201 0 0 1 151 12a103 103 0 0 0 4.437 3.625c4.68 3.665 9.288 7.407 13.875 11.188l2.21 1.818a762 762 0 0 1 10.287 8.611l1.77 1.513q2.346 2.014 4.687 4.038L191 45l1.982 1.615c4.611 2.116 9.028 1.79 14.043 1.75l3.412.01c3.78.006 7.56-.008 11.34-.022q4.06 0 8.12.007 8.751.006 17.501-.01c8.443-.016 16.886-.01 25.33.001q20.565.029 41.13.028h2.486q13.727 0 27.455-.011l2.492-.002 2.49-.002 4.97-.004c.819 0 1.637 0 2.48-.002q20.483-.014 40.967.025 12.63.022 25.26-.011 8.657-.021 17.314.005 4.994.016 9.986-.01c3.612-.018 7.223-.006 10.836.014l3.173-.039c6.61.079 11.161 1.278 16.233 5.658 3.774 5.079 3.432 10.403 3.404 16.484l.02 3.16c.02 3.44.015 6.88.01 10.32l.015 7.189q.014 7.529-.003 15.058c-.011 6.427.009 12.853.038 19.28.018 4.948.018 9.895.012 14.843q0 3.555.019 7.108a1030 1030 0 0 1-.013 9.944l.029 2.956c-.066 6.076-.75 9.808-4.531 14.658-5.059 3.471-8.842 4.584-15.007 4.506l-2.366.019c-2.614.015-5.227.002-7.84-.01q-2.841.008-5.681.02c-5.202.02-10.404.013-15.606.003-5.611-.007-11.222.009-16.833.022-10.991.021-21.983.021-32.974.013q-13.399-.008-26.797.001l-3.85.003-7.744.006a39048 39048 0 0 1-70.567-.008q-32.205-.021-64.41.022a42011 42011 0 0 1-80.087.033l-3.835-.001q-13.383-.002-26.766.022-16.309.027-32.618-.005c-5.548-.012-11.096-.015-16.644.004q-7.618.024-15.235-.014a572 572 0 0 0-5.513.011c-16.95.11-16.95.11-22.293-4.183-3.919-4.301-4.71-8.268-4.722-13.947l-.03-3.895.014-4.237-.02-4.49c-.019-4.057-.018-8.112-.012-12.168.003-3.39-.003-6.78-.009-10.169q-.02-11.997-.001-23.995c.011-8.243-.003-16.486-.03-24.73q-.032-10.627-.022-21.256c.003-4.229 0-8.457-.017-12.685q-.021-5.966.008-11.93.005-2.185-.01-4.37C1.389 13.421 1.389 13.421 6 8c6.054-4.907 12.037-4.593 19.601-4.581M8 14c-1.364 2.728-1.132 4.885-1.14 7.94l-.018 3.836-.003 4.233-.015 4.44q-.019 6.04-.024 12.08l-.012 7.546q-.02 11.799-.027 23.599-.007 13.628-.05 27.255-.034 10.53-.034 21.058 0 6.29-.025 12.58-.023 5.92-.01 11.837.002 2.172-.013 4.343c-.013 1.978-.005 3.955.004 5.933l-.005 3.352c.429 3.42 1.268 5.251 3.372 7.968 3.618 2.49 7.37 2.28 11.6 2.254l2.342.01c2.606.009 5.211.003 7.817-.003l5.642.011c5.18.01 10.361.008 15.542.004 5.582-.002 11.164.007 16.746.014q16.411.018 32.822.012 13.335-.002 26.669.005l3.829.001 7.7.004q25.863.013 51.726.008h2.043l10.257-.003h2.057l4.12-.002q32.052-.007 64.106.021 35.998.032 71.995.028 19.065-.005 38.131.014 16.23.019 32.46.002a5129 5129 0 0 1 16.57.005q7.579.014 15.158-.007 2.747-.004 5.495.008c2.483.01 4.965.002 7.447-.011l2.174.022c4.352-.048 7.077-.754 10.552-3.397 1.922-2.83 2.252-5.092 2.26-8.472l.022-2.697-.007-2.936.015-3.11c.014-3.396.013-6.792.01-10.187l.014-7.077q.01-7.417.002-14.836c-.006-6.34.01-12.68.034-19.02.015-4.871.016-9.743.013-14.615q0-3.506.015-7.013c.013-3.268.006-6.535-.006-9.802l.023-2.93c-.047-6.663-.047-6.663-3.395-12.305-3.013-1.847-5.254-2.247-8.763-2.231l-2.912-.002-3.19.029-3.396.006c-3.769.008-7.538.031-11.307.054l-8.091.023q-7.594.02-15.187.051c-9.958.042-19.916.057-29.874.063l-11.838.008q-13.447.009-26.895.025l-2.483.003c-13.26.018-26.52.068-39.779.13q-20.438.09-40.877.064-12.595-.017-25.189.082a1388 1388 0 0 1-17.29.018 551 551 0 0 0-9.958.039c-23.78.304-23.78.304-32.776-8.021q-1.41-1.417-2.776-2.877c-2.507-2.586-5.328-4.804-8.107-7.089q-1.623-1.38-3.242-2.766c-3.605-3.073-7.245-6.097-10.98-9.012-2.24-1.804-4.18-3.729-6.129-5.842-9.1-9.303-17.157-11.173-29.976-11.366a510 510 0 0 0-9.853.128c-3.47.064-6.94.056-10.41.057-5.811.013-11.621.075-17.432.17-6.706.11-13.41.158-20.116.168-7.176.012-14.351.061-21.526.126q-3.084.024-6.168.036c-3.83.02-7.657.083-11.486.152l-3.43.007C15.945 8.396 12.497 8.992 8 14" fill="#585858"/>
	<path d="M182 93a775 775 0 0 1 11.188-.25l3.197-.102c7.774-.098 7.774-.098 11.814 2.063 2.657 3.377 2.505 5.643 2.29 9.805-.811 4.123-2.28 5.775-5.489 8.484-2.676.148-2.676.148-5 0l.934 1.481a760 760 0 0 1 4.129 6.707l1.47 2.33c3.51 5.8 3.51 5.8 3.276 9.533L209 135c-2.942-.322-4.54-.503-6.59-2.715l-1.347-2.222-1.504-2.438L198 125l-1.715-2.75C192 115.313 192 115.313 192 113h-3l.016 1.912q.029 4.263.047 8.525l.025 3.01.01 2.862.016 2.65C189 134 189 134 188 135c-2.5.125-2.5.125-5 0-1-1-1-1-1.114-4.877q0-2.595.016-5.19l.005-2.753c.005-2.914.018-5.828.03-8.743q.008-2.954.014-5.912.017-7.262.049-14.525" fill="#f5f5f5"/>
	<path d="M284 104c3.398 2.023 5.551 4.312 6.579 8.177.265 2.47.29 4.84.233 7.323l.096 2.512c-.02 3.494-.202 5.994-2.258 8.89-4.074 3.87-7.528 4.94-13.212 4.91-8.22-.43-8.22-.43-11.375-3.187-4.014-6.2-3.37-15.63-2.063-22.625 1.164-2.763 1.925-3.74 4.469-5.273 5.757-1.653 11.687-2.013 17.531-.727" fill="#f3f3f3"/>
	<path d="M244 104c3.325 2.007 5.547 4.273 6.547 8.083.225 2.336.224 4.572.14 6.917l.045 2.367c-.06 4.158-.492 6.854-3.15 10.133-4.319 4.181-7.99 3.997-13.893 4.001-3.795-.134-6.74-.29-9.626-2.876-4.014-6.2-3.37-15.63-2.063-22.625 1.164-2.763 1.925-3.74 4.469-5.273 5.757-1.653 11.687-2.013 17.531-.727" fill="#f3f2f3"/>
	<path d="m313.813 103.688 3.353-.088 3.229-.026 2.964-.044c3.471.618 4.607 1.61 6.641 4.47.454 2.84.454 2.84.39 6.078l-.038 3.516-.102 3.656-.055 3.703A774 774 0 0 1 330 134c-2.375.625-2.375.625-5 1-2-2-2-2-2.227-4.247.01-.91.02-1.822.032-2.76l.02-2.99.05-3.128.027-3.152q.036-3.862.098-7.723l-3 2c-.491 2.204-.491 2.204-.477 4.754l-.093 2.838-.055 2.97q-.075 2.91-.164 5.817l-.053 2.611C319 134 319 134 318 135c-2.5.125-2.5.125-5 0-1.65-1.65-1.225-3.637-1.316-5.91l-.127-2.998-.12-3.154-.13-3.167q-.16-3.885-.307-7.771l-3 1 .016 1.912q.029 4.263.046 8.525l.026 3.01.01 2.862.016 2.65C308 134 308 134 307 135c-2.5.125-2.5.125-5 0-1.857-1.857-1.13-4.925-1.133-7.406l-.004-3.942.007-2.063q.005-3.12-.007-6.241l.004-3.942.004-3.646c.293-6.26 8.03-4.03 12.942-4.073" fill="#f4f4f4"/>
	<path d="m356.063 103.563 2.431-.022c3.529.038 5.902.136 9.049 1.818C369 107 369 107 369.25 109.688L369 112a88 88 0 0 1-5 1l-1-1a168 168 0 0 0-6.562-.562l-3.63-.254L350 111v2l2.605.809c3.399 1.192 6.497 2.626 9.707 4.254l3.176 1.597C368 121 368 121 369 122c.7 7.004.7 7.004-1.922 10.734-4.273 3.145-7.538 2.938-12.703 2.766l-2.602.008c-6.244-.098-6.244-.098-8.528-1.87-1.707-2.246-1.468-3.892-1.245-6.638 2-.043 4-.04 6 0l1 1c2.02.072 4.042.084 6.063.063l3.347-.028L361 128v-3c-3.88-1.974-7.698-3.909-11.75-5.5-3.284-1.516-5.152-2.563-7.25-5.5-.562-3-.562-3 0-6 4.25-4.663 8.153-4.585 14.063-4.437" fill="#f1f1f1"/>
	<path d="m273.313 110.734 2.687.016 2.688-.016C281 111 281 111 283 113c.3 3.188.3 3.188.313 7l.05 3.813L283 127c-2.97 1.98-3.657 2.294-7 2.313l-2.062.05C272 129 272 129 270.27 127.891c-1.884-2.806-1.631-5.114-1.582-8.454l.011-3.503c.367-3.579.939-4.778 4.613-5.2" fill="#282224"/>
	<path d="m233.313 110.734 2.687.016 2.688-.016C241 111 241 111 243 113c.3 3.188.3 3.188.313 7l.05 3.813L243 127c-2.97 1.98-3.657 2.294-7 2.313l-2.062.05C232 129 232 129 230.27 127.891c-1.884-2.806-1.631-5.114-1.583-8.454l.012-3.503c.367-3.579.939-4.778 4.613-5.2" fill="#2a2426"/>
	<path d="M189 99q3.219-.04 6.438-.062l3.62-.036C202 99 202 99 203 100c.125 3 .125 3 0 6-1 1-1 1-3.941 1.098l-3.621-.035-3.63-.028L189 107z" fill="#2a2426"/>
	<path d="M271 111a365 365 0 0 1 4.875-.125l2.742-.07C281 111 281 111 283 113c.195 3.258.195 3.258.125 7.125l-.055 3.883L283 127h-1v-5l-1.734-.773c-2.508-1.358-4.399-2.947-6.516-4.852l-2.14-1.914L270 113z" fill="#464646"/>
</svg>