<svg xmlns="http://www.w3.org/2000/svg" width="475" height="200">
	<path d="M160 48c7.227 2.753 13.512 8.025 17 15 .097 1.936.13 3.875.125 5.813l.008 3.144C177 75 177 75 176.43 77.762c-.67 2.264-.67 2.264.57 4.238l3.5-1c5.24-1.2 10.402-1.119 15.738-.926 4.4.112 7.65-.593 11.762-2.074 5.121-.952 10.008-1.097 15.188-1 4.103.076 7.823.023 11.812-1 2.416-.068 4.833-.085 7.25-.062l3.828.027L249 76l-.36-1.758c-.67-4.07-.869-6.636.61-10.555 10.216-9.983 33.588-12.104 47.05-11.96 11.64.86 19.845 5.418 27.95 13.523C327.398 70.197 331 76.042 331 82l2.938-.937c3.642-1.067 7.168-1.413 10.949-1.622 2.212-.28 2.212-.28 3.8-1.937 4.556-2.963 10.548-2.062 15.847-2.06 2.196-.006 4.388-.06 6.583-.118 7.382-.086 13.006.104 18.704 5.381L391 82l2.5-2.957c5.292-4.521 11.719-3.905 18.315-3.77 2.181.04 4.356.02 6.537-.005 7.638.005 13.058.175 18.648 5.732 2.618 3.414 2.308 6.81 2 11-1.582 2.816-1.582 2.816-3.812 5.563l-2.454 3.082-1.33 1.627c-2.026 2.493-3.995 5.03-5.971 7.564A1638 1638 0 0 1 419 118c1.454 3.2 3.262 5.727 5.477 8.45l2.03 2.571a417 417 0 0 0 4.259 5.274c3.871 4.959 6.078 8.412 5.725 14.806-.849 3.283-2.874 4.905-5.491 6.899-4.189 2.094-9.603 1.268-14.211 1.295-2.018.017-4.034.061-6.05.105l-3.88.026-3.547.044c-3.972-.564-6.161-2.052-9.312-4.47a56.5 56.5 0 0 0-7 4c-4.07.409-8.142.372-12.232.37-1.997.005-3.994.042-5.99.08-7.398.022-11.637-.435-17.778-4.45-3.625-.407-3.625-.407-7.312-.125-11.163.286-19.402-1.684-28.688-7.875-3.41.363-6.163 1.443-9.25 2.875-9.566 3.924-24.32 7.567-34.514 4.614-2.725-.596-5.2-.566-7.99-.516l-3.338.037q-3.477.053-6.953.117l-3.334.033-3.049.051C244 152 244 152 241 150c-2.037-.093-2.037-.093-4.246.242l-2.521.294-2.67.339c-18.42 2.096-18.42 2.096-24.997.555-3.142-.527-5.564-.08-8.691.507-4.44.776-8.44 1.105-12.937.875-2.625-.126-2.625-.126-4.938.188-2.512 2.243-2.512 2.243-4 5-4.785 3.107-10.311 2.368-15.812 2.375l-3.237.074c-7.973.03-12.31-1.191-18.326-6.574-3.954-6.995-2.755-16.67-2.687-24.5l.013-3.043q.018-3.666.049-7.332h-5l.5 3.625c1.927 18.42 1.927 18.42-1.437 23.125-3.968 2.915-7.245 3.64-12.063 4.25l-2.125.332c-2.293.316-4.566.51-6.875.668l-3.21.234c-9.738.401-9.738.401-13.978-2.484-3.68-3.599-4.964-6.216-5.445-11.297l-.254-2.558-.238-2.645-.262-2.691A1035 1035 0 0 1 85 123h-2l1 3c.797 7.673 1.09 15.414 1.25 23.125l.078 3.633c-.364 3.598-1.112 5.408-3.328 8.242-5.91 3.007-11.542 3.322-18.062 3.438l-2.29.067c-7.16-.029-12.05-2.123-17.311-6.947-3.5-4.392-3.275-9.425-3.482-14.835l-.18-3.287c-.184-3.457-.336-6.915-.487-10.374q-.18-3.483-.366-6.966C38.918 104.638 38.918 104.638 39 97l-1.875-.812C35 95 35 95 33 92c-.243-2.141-.243-2.141-.23-4.605l.005-2.733.038-2.85.001-2.79c.094-14.586.094-14.586 3.374-18.897 5.715-4.318 12.525-4.84 19.433-5.852l3.085-.462q3.22-.48 6.443-.953c3.275-.481 6.548-.974 9.822-1.467l6.275-.93 2.949-.445c14.18-2.058 14.18-2.058 19.118 1.297l1.988 1.3c3.647 2.977 4.21 5.91 4.699 10.387v10h25V62c4.482-12.066 12.484-15.467 25-14" fill="#3c6cb7"/>
	<path d="M311 66c8.165 9.156 9.922 20.221 11 32l1.617-1.207c8.11-5.767 16.328-8.925 26.383-7.793 2.42.523 4.65 1.2 7 2l-2-3v-3c21.48-2.234 21.48-2.234 27.166 1.374 3.611 3.658 5.829 7.934 7.834 12.626 3.071-2.831 4.924-5.579 6.941-9.21 2.173-3.161 3.234-4.56 6.965-5.6 3.394-.174 6.643-.065 10.031.185l3.518.137c2.854.117 5.697.281 8.545.488-.866 4.154-2.733 6.533-5.375 9.875l-1.324 1.686a970 970 0 0 1-2.815 3.564c-1.539 1.941-3.068 3.89-4.595 5.84A3971 3971 0 0 1 404 116c2.857 5.33 6.135 9.86 10 14.5s7.143 9.17 10 14.5c-2.95 2.95-11.24 1.733-15.19 1.822-8.789-.159-8.789-.159-12.337-3.275-2.185-2.762-3.946-5.38-5.473-8.547l-2.187 2.125-1.414 1.365c-1.656 1.695-1.656 1.695-3.473 4.8-3.888 3.601-6.394 3.335-11.541 3.237l-3.197-.152-3.256-.082A394 394 0 0 1 358 146l-1-2 1.582-2.098C364.79 133.651 370.907 125.336 377 117l-1.102-1.469L365 101c-3.652 1.482-5.43 3.461-7.812 6.563l-2.083 2.683L353 113l-4 5.125-3 3.875c4.468-2.234 6.327-4.853 9-9h2a87 87 0 0 1 4 4.813l2.125 2.707c3.854 5.099 3.854 5.099 4 7.793-2.176 5.199-6.84 7.586-11.762 9.957-9.185 3.546-20.438 4.595-29.988 1.667-5.361-3.077-8.457-6.64-10.75-12.375L314 125l-1.18 1.574c-9.125 11.375-21.028 12.842-34.71 15.252C276 142 276 142 273 141c-1.306-3.342-1.359-7.062-1.684-10.61l-.37-3.956-.19-2.075C269.702 112.88 268.574 101.422 267 90l-3 2c-2.63-3.9-3.78-7.41-4.75-12l-.797-3.625c-.428-3.187-.313-5.308.547-8.375 13.96-4.572 38.822-12.621 52-2M114 83v2l3.25-1.5c5.534-2.028 10.934-2.478 16.75-1.5 2.624 1.31 4.777 2.759 7.063 4.59 2.178 1.585 3.241 2.256 5.937 2.41a79 79 0 0 0 7-2.937c3.848-1.816 6.624-3.063 11-3.063l.184 3.105.254 4.082.119 2.042c.232 3.668.615 7.188 1.443 10.771l1.176-2.27c3.695-5.53 10.578-9.373 16.949-11.168 8.131-1.18 14.206-.608 21.875 2.438v-4q3.061-.508 6.125-1l3.445-.562c3.961-.506 7.723-.877 11.618.124 2.03.66 2.03.66 4.812-.562 12-.91 12-.91 17.438 1.563L253 90l1.762 1.543C262.873 98.974 265.295 107.146 266 118c.016 3.174-.09 6.33-.25 9.5l-.116 2.32c-.29 4.294-1 7.093-2.634 11.18h-19l-.312-7.562c-.519-9.986-1.673-20.19-5.688-29.438-3.133.665-3.133.665-4.162 3.135-.971 3.32-1.16 6.239-1.252 9.697l-.117 3.916-.094 4.064q-.057 2.063-.117 4.124c-.094 3.354-.177 6.71-.258 10.064l-23 2-1-5-2.012.84-2.675 1.097-2.637 1.09c-7.808 2.838-18.455 3.582-26.465 1.114-2.27-1.14-4.398-2.328-6.211-4.141v12h-22c-1.077-14.68-1.106-29.286-1-44l-3.82-.125-2.15-.07c-3.139.302-4.799 2.095-7.03 4.195h-2a125 125 0 0 1-4-6c-1.959.113-1.959.113-4 1-2.098 3.973-2.223 7.356-2.16 11.797l.033 3.902q.03 2.025.064 4.051.054 3.992.09 7.984l.055 3.57C120 137 120 137 119 138c-1.63.227-3.27.395-4.91.535l-2.998.264-3.154.263-3.167.276q-3.885.337-7.771.662c-2.467-5.773-2.347-11.355-2.414-17.523l-.059-3.338c-.06-3.504-.106-7.01-.152-10.514q-.057-3.573-.117-7.145Q94.115 92.74 94 84q3.592-.545 7.188-1.062l2.04-.315c3.85-.545 7.013-.667 10.772.377" fill="#fdcb04"/>
	<path d="M97 59c.701 6.7 1.11 13.263 1 20-6.293 1.707-12.542 2.752-19 3.625l-2.926.406q-3.536.49-7.074.969v11l3-.656 4-.844 1.965-.434 1.972-.41 1.778-.38C85.12 91.864 88.57 92 92 92v17c-7.032 1.685-13.832 3.14-21 4l.2 3.472q.36 6.354.71 12.708.152 2.755.31 5.51.227 3.95.44 7.9c.05.826.098 1.652.148 2.503.104 1.967.154 3.937.192 5.907-3.21 3.21-12.468 2.156-16.8 2.23C54 153 54 153 51 151a59 59 0 0 1-.695-7.375l-.114-2.27a860 860 0 0 1-.316-7.355q-.116-2.518-.236-5.036c-.232-4.987-.437-9.975-.639-14.964l-.18-4.295c-.3-7.234-.578-14.469-.82-21.705l-6 1c-.103-7.427.001-14.635 1-22 4.53-2.112 9.025-2.787 13.922-3.508l2.604-.395q2.722-.41 5.447-.811c2.755-.408 5.508-.829 8.261-1.25q2.656-.398 5.313-.794l2.463-.379c5.383-.78 10.55-.971 15.99-.863" fill="#fdcb04"/>
	<path d="M292.313 80.688C296 81 296 81 298.375 82.812c4.383 5.9 3.08 15.118 2.625 22.188-.776 4.962-2.597 7.99-6.625 11-3.375 2-3.375 2-4.375 2q-.507-6.468-1-12.937l-.29-3.674c-.49-6.48-.93-12.891-.71-19.389 1-1 1-1 4.313-1.312" fill="#3b6bb7"/>
	<path d="M363 100c3.038 1.326 4.79 2.629 6.797 5.258l1.465 1.894 1.488 1.973 1.535 1.996q1.866 2.433 3.715 4.879c-2.347 4.242-4.713 8.142-7.75 11.938l-1.86 2.34L367 132c-1-3-1-3-1.309-5.395-.877-3.306-2.395-4.842-4.753-7.293C357 115.196 357 115.196 357 113l-1.687 1.688L353 117l-2.562 2.75C348 122 348 122 345 122z" fill="#3e6db5"/>
	<path d="M433 79c2.328.931 3.744 1.654 5.25 3.688 1.06 3.267 1.014 5.887.75 9.312-1.582 2.816-1.582 2.816-3.812 5.563l-2.454 3.082-1.33 1.627c-2.026 2.493-3.995 5.03-5.971 7.564A1638 1638 0 0 1 419 118c1.454 3.2 3.262 5.727 5.477 8.45l2.03 2.571a417 417 0 0 0 4.259 5.274c3.871 4.959 6.078 8.412 5.725 14.806-.849 3.283-2.874 4.905-5.491 6.899-4.222 2.111-9.732 1.227-14.376 1.24-2.05.01-4.1.041-6.15.072l-3.908.016-3.595.028C400 157 400 157 398.09 155.48L397 154l2.491.048c3.732.062 7.464.101 11.197.14l3.92.076 3.779.029 3.475.048c3.49-.38 5.328-1.283 8.138-3.341 1.993-2.537 2.004-3.882 1.902-7.133-1.17-5.018-3.537-8.023-6.714-11.992l-1.62-2.09c-2.264-2.913-4.526-5.74-7.017-8.465C415 119 415 119 414.93 116.605c1.472-3.585 3.74-6.344 6.195-9.293q1.5-1.866 2.996-3.738L427 100c5.497-6.47 5.497-6.47 7.5-14.437-.384-3.516-.384-3.516-1.5-6.563" fill="#bbbdbf"/>
	<path d="M157 57c3.704 2.027 5.654 3.48 8 7 .524 3.93.148 5.725-1.75 9.25-2.975 3.636-4.549 4.491-9.125 5.188-4.393-.616-5.97-2.357-9.125-5.438-1.555-3.11-1.286-5.563-1-9 3.558-6.405 5.697-7.609 13-7" fill="#fcca04"/>
	<path d="M80 120h6l-1 3h-2l1 3c.797 7.673 1.09 15.414 1.25 23.125l.078 3.633c-.364 3.598-1.112 5.408-3.328 8.242-5.969 3.037-11.606 3.297-18.187 3.375l-2.34.042c-4.897-.04-8.179-.828-12.473-3.417l2-1 3 1c13.205.864 13.205.864 25-4 1.56-3.12 1.121-6.43 1.098-9.852l-.005-2.345c-.005-2.476-.018-4.952-.03-7.428q-.008-2.515-.014-5.031Q80.032 126.17 80 120" fill="#babcbf"/>
	<path d="m137 115-1 4h-5l.5 3.625c1.927 18.42 1.927 18.42-1.437 23.125-3.968 2.915-7.245 3.64-12.063 4.25l-2.125.332c-6.486.894-13.371 1.425-19.875.668-1.883-1.516-1.883-1.516-3-3l3.043-.148c14.758-.335 14.758-.335 28.77-4.13 3.66-4.556 2.971-9.805 3-15.472l.076-3.559q.088-4.345.111-8.691c6.75-1 6.75-1 9-1" fill="#b6babf"/>
	<path d="M207 149c-6.24 4.16-14.738 4.158-22.062 3.813-2.625-.127-2.625-.127-4.938.187-2.512 2.243-2.512 2.243-4 5-3.165 2.07-5.766 2.257-9.5 2.266l-3.187.007-3.313-.023-3.312.023-3.188-.007-2.906-.007c-2.664-.266-4.31-.903-6.594-2.259v-1l2.307-.012c3.461-.033 6.92-.104 10.38-.175 1.798-.01 1.798-.01 3.631-.018 7.091.105 7.091.105 12.952-3.283.57-.83 1.142-1.658 1.73-2.512 1.965-1.965 5.737-1.32 8.438-1.437 4.872-.242 9.484-.624 14.25-1.75 3.708-.857 5.921-.847 9.312 1.187" fill="#bbbdbf"/>
	<path d="m311 140 3 2v2c-6.74 3.772-13.547 5.794-21.062 7.313l-2.503.518c-5.859 1.114-11.48 1.361-17.435 1.169l-1-2 2.228-.396c3.384-.607 6.766-1.23 10.147-1.854l3.504-.621c8.263-1.54 16.058-3.42 23.121-8.129" fill="#b9bbbf"/>
	<path d="m390 148 3 2c-1.409 3.405-2.827 5.113-6 7-3.053.388-3.053.388-6.594.398l-3.87.012-2.008-.019c-2.022-.016-4.042 0-6.063.02l-3.871-.013-3.541-.01c-3.285-.418-4.659-1.164-7.053-3.388.817.01 1.634.02 2.475.032 3.717.041 7.433.067 11.15.093l3.895.05 3.77.02 3.459.032c3.423-.239 6.092-.9 9.251-2.227 1.42-2.001 1.42-2.001 2-4" fill="#bbbcbf"/>
	<path d="M168 53q1.697 1.364 3.375 2.75l1.898 1.547c2.739 2.7 3.645 4.696 3.957 8.543l-.042 3.097-.02 3.09c-.156 2.758-.619 5.274-1.168 7.973.369 2.232.369 2.232 1 4l-3 1c-2.444-5.912-3.25-8.875-1-15 .13-5-.199-8.835-3.062-13L168 55z" fill="#b9bbbf"/>
	<path d="M239 147v2c-9.812 2.39-19.872 3.932-30 3l-2-2 2.247-.26q5.033-.584 10.065-1.178l3.538-.408 3.388-.4 3.127-.365c7.38-1.09 7.38-1.09 9.635-.389" fill="#bbbdbf"/>
	<path d="M103 52c3.161 1.37 3.993 1.99 6 5 1.395 5.581 1.091 11.288 1 17h-4l-.148-3.543-.227-4.644-.094-2.33c-.217-4.222-.628-7.624-2.531-11.483" fill="#b5b9bf"/>
	<path d="m320 147 3.75 1c8.592 1.768 17.523 1.165 26.25 1l1 3c-11.13 1.098-20.987 1.797-31-4z" fill="#b9bbbf"/>
	<path d="M267 148c2.625.938 2.625.938 5 2-4.772 3.181-9.89 2.328-15.5 2.313l-3.496.048-3.348.002-3.068.01c-2.929-.422-3.804-1.075-5.588-3.373l2.171.016q4.853.029 9.704.047l3.418.025 3.262.01 3.015.016c2.44.05 2.44.05 4.43-1.114" fill="#bcbebf"/>
	<path d="m342 105-6 8-1.574 2.266L333 117h-2c-.325-4.654.202-7.234 3-11 2.709-1.354 5.01-1.065 8-1" fill="#4871ac"/>
	<path d="M317 60c6.29 2.33 9.104 7.895 11.813 13.625C330.447 77.216 331 78.964 331 83h-3c-.315-.941-.63-1.882-.953-2.852l-1.297-3.773-1.266-3.727c-1.471-3.616-3.217-6.483-5.484-9.648z" fill="#b8bbbf"/>
	<path d="M206 106h1v9h-4c-1.639 1.485-1.639 1.485-3 3.438-2.146 2.886-3.4 4.011-7 4.562a1104 1104 0 0 1 9.813-13l1.769-2.312z" fill="#4b73a8"/>
	<path d="M190 105c-2.592 4.607-5.627 8.93-9 13h-1c-.607-7.167-.607-7.167 2.188-11 3.007-2.139 4.224-2.513 7.812-2" fill="#426fb1"/>
	<path d="m352 115 1 2c-2.312 2.5-2.312 2.5-5 5h-3c2.22-2.908 3.93-4.953 7-7" fill="#4e75a6"/>
</svg>