<svg xmlns="http://www.w3.org/2000/svg" width="1200" height="1191.367" viewBox="0 0 1200 1191.367">
	<path d="m551.629 -0.685 8.912 -0.072q9.332 -0.058 18.668 -0.092 9.347 -0.052 18.688 -0.178C659.799 -1.876 718.276 6.037 776.978 25.899l6.466 2.144C859.163 53.447 927.856 93.022 987.05 146.763q4.61 4.095 9.229 8.184C1012.601 169.522 1027.77 184.558 1041.727 201.439l6.397 7.272c104.17 120.351 150.227 278.878 139.758 436.391C1179.226 747.744 1142.878 892.403 1061.871 964.029h-5.755l-1.617 5.755c-5.986 12.489 -14.993 21.494 -24.282 31.655l-5.632 6.532c-10.8 12.501 -21.891 23.859 -34.521 34.509a368.345 368.345 0 0 0 -11.781 10.455c-64.273 59.465 -150.863 100.835 -234.757 123.505l-5.804 1.591c-7.027 1.784 -14.066 3.275 -21.174 4.702l-5.399 1.091c-36.699 7.177 -72.668 8.978 -110.012 8.826 -9.001 -0.023 -18 0.058 -27.001 0.15 -139.885 0.481 -274.561 -55.488 -378.452 -148.196l-4.633 -4.095C173.131 1024.633 156.288 1008.403 141.007 989.928l-6.397 -7.272C63.381 900.363 0.8 781.053 -0.555 669.954l-0.141 -10.524a11815.827 11815.827 0 0 1 -0.311 -48.014q-0.058 -12.544 -0.236 -25.088C-1.957 535.068 0.253 487.111 14.388 437.41l2.832 -10.498A466.187 466.187 0 0 1 24.82 402.878l2.906 -8.529C50.544 329.681 83.695 267.194 129.496 215.827l6.745 -7.588a2210.072 2210.072 0 0 1 13.24 -14.636 503.597 503.597 0 0 0 14.728 -17.165C173.698 165.324 184.535 156.181 195.683 146.763l7.971 -7.094C296.976 57.209 426.04 0.282 551.626 -0.685" fill="#d40021"/>
	<path d="m551.629 -0.685 8.912 -0.072q9.332 -0.058 18.668 -0.092 9.347 -0.052 18.688 -0.178C659.799 -1.876 718.276 6.037 776.978 25.899l6.466 2.144C859.163 53.447 927.856 93.022 987.05 146.763q4.61 4.095 9.229 8.184C1012.601 169.522 1027.77 184.558 1041.727 201.439l6.397 7.272c104.17 120.351 150.227 278.878 139.758 436.391C1179.226 747.744 1142.878 892.403 1061.871 964.029h-5.755l-1.617 5.755c-5.986 12.489 -14.993 21.494 -24.282 31.655l-5.632 6.532c-10.8 12.501 -21.891 23.859 -34.521 34.509a368.345 368.345 0 0 0 -11.781 10.455c-64.273 59.465 -150.863 100.835 -234.757 123.505l-5.804 1.591c-7.027 1.784 -14.066 3.275 -21.174 4.702l-5.399 1.091c-36.699 7.177 -72.668 8.978 -110.012 8.826 -9.001 -0.023 -18 0.058 -27.001 0.15 -139.885 0.481 -274.561 -55.488 -378.452 -148.196l-4.633 -4.095C173.131 1024.633 156.288 1008.403 141.007 989.928l-6.397 -7.272C63.381 900.363 0.8 781.053 -0.555 669.954l-0.141 -10.524a11815.827 11815.827 0 0 1 -0.311 -48.014q-0.058 -12.544 -0.236 -25.088C-1.957 535.068 0.253 487.111 14.388 437.41l2.832 -10.498A466.187 466.187 0 0 1 24.82 402.878l2.906 -8.529C50.544 329.681 83.695 267.194 129.496 215.827l6.745 -7.588a2210.072 2210.072 0 0 1 13.24 -14.636 503.597 503.597 0 0 0 14.728 -17.165C173.698 165.324 184.535 156.181 195.683 146.763l7.971 -7.094C296.976 57.209 426.04 0.282 551.626 -0.685m93.66 221.735c-4.426 7.813 -9.6 14.878 -15.096 21.968l-4.576 6.222a7185.612 7185.612 0 0 1 -45.663 61.404c-14.058 18.711 -27.937 37.554 -41.801 56.409l-5.157 6.483c-5.246 7.565 -8.817 14.219 -12.659 22.478 -8.688 16.783 -18.058 30.809 -34.006 41.396 -30.717 9.583 -64.671 6.929 -96.478 6.124 -12.717 -0.259 -25.43 -0.21 -38.15 -0.196 -24.026 -0.017 -48.037 -0.311 -72.06 -0.708 -27.373 -0.44 -54.742 -0.564 -82.115 -0.665A14635.971 14635.971 0 0 1 28.777 440.288q-3.496 15.05 -6.958 30.101l-1.986 8.524C-12.711 620.783 16.794 776.889 92.086 900.719c31.727 49.491 69.658 97.669 115.108 135.252l7.272 6.397C331.122 1143.338 475.401 1183.462 627.338 1179.856l-4.432 -9.306C568.555 1053.885 558.656 922.233 601.439 800c5.919 -15.744 12.771 -30.929 20.144 -46.043l4.201 -8.656C649.209 699.879 683.393 661.065 728.058 635.971l5.485 -3.373c39.194 -22.345 87.065 -24.679 129.801 -13.623 68.124 20.662 112.38 70.319 145.908 130.742C1040.849 809.658 1051.655 877.327 1058.993 943.885c92.737 -112.696 125.712 -266.334 113.764 -409.168 -11.931 -115.073 -59.289 -228.728 -135.422 -316.101C1030.216 210.072 1030.216 210.072 1023.842 200.555c-11.609 -16.311 -22.809 -27.891 -43.094 -31.551 -18.512 -2.052 -37.03 -2.014 -55.635 -1.917q-10.331 -0.106 -20.662 -0.233a2618.705 2618.705 0 0 0 -43.174 -0.017c-18.363 0.115 -36.691 -0.187 -55.05 -0.604 -14.216 -0.268 -28.417 -0.276 -42.633 -0.216q-10.144 -0.009 -20.288 -0.279c-51.223 -1.203 -72.932 10.132 -98.017 55.309"/>
	<path d="m946.224 130.576 5.899 4.36 5.488 4.161 4.82 3.646c5.206 4.676 8.978 9.899 13.108 15.531l-11.168 -0.144a9315.108 9315.108 0 0 0 -104.403 -0.668 4207.194 4207.194 0 0 1 -53.672 -0.363 2909.353 2909.353 0 0 0 -51.833 -0.224 978.417 978.417 0 0 1 -19.735 -0.213c-36.886 -2.348 -36.886 -2.348 -68.728 12.624 -7.692 9.036 -13.039 18.78 -18.518 29.275a405.755 405.755 0 0 1 -10.207 13.692 8037.41 8037.41 0 0 0 -9.217 12.567l-10.388 14.141 -5.255 7.165c-8.437 11.494 -16.901 22.97 -25.364 34.449l-10.072 13.669 -25.188 34.184 -9.986 13.554q-13.226 17.957 -26.472 35.896l-5.586 7.568 -10.636 14.4 -4.82 6.538 -4.247 5.75A437.41 437.41 0 0 0 480.576 425.899c-7.683 1.036 -7.683 1.036 -17.56 0.978h-11.329l-11.96 -0.135 -10.955 -0.029c-13.548 -0.043 -27.094 -0.164 -40.642 -0.273L296.403 425.899V238.849h-5.755l-2.337 4.812C284.524 251.079 280.466 258.273 276.259 265.468l-4.495 7.778L267.626 279.137h-5.755l-0.909 4.901c-2.331 7.827 -5.888 13.496 -10.42 20.279l-4.576 6.97L241.727 316.547h-5.755v-5.755h-5.755c-12.745 -21.378 -12.745 -21.378 -14.388 -31.655h-5.755a333.813 333.813 0 0 1 -11.511 -18.524c-6.596 -12.852 -6.596 -12.852 -17.266 -21.764v187.05H34.532c5.807 -21.298 11.612 -40.607 20.325 -60.61l3.404 -7.856C83.62 300.158 117.217 251.301 158.273 204.317l6.305 -7.384C176.886 182.696 189.928 170.36 204.317 158.273l7.948 -7.071c206.466 -182.44 516.564 -181.563 733.957 -20.627" fill="#a6001a"/>
	<path d="M926.619 256.115c31.019 26.095 51.914 59.027 63.309 97.842l1.957 6.104c13.039 47.252 1.971 99.039 -21.033 141.122 -26.429 44.875 -71.309 76.547 -121.212 89.824 -55.793 13.482 -108.978 1.502 -157.732 -27.517C648.052 534.44 623.401 493.111 610.072 443.165c-9.819 -48.532 -0.262 -99.6 25.476 -141.868 29.122 -43.191 73.298 -72.912 123.804 -85.111C820.417 204.814 877.036 219.396 926.619 256.115"/>
	<path d="M333.813 181.295c13.18 5.272 18.915 9.001 28.958 18.345l7.295 6.722a299.281 299.281 0 0 1 13.016 13.174c5.252 5.894 5.252 5.894 14.04 4.924 3.347 -3.148 6.662 -6.337 9.813 -9.678 5.681 -5.85 11.649 -11.301 17.706 -16.76l6.483 -5.879C437.41 187.05 437.41 187.05 448.921 181.295v244.604h-115.108z" fill="#7092be"/>
	<path d="M264.748 635.971c22.622 19.39 22.622 19.39 30.115 27.056l4.996 5.065 9.96 10.187c8.515 8.627 17.142 16.904 26.342 24.8 14.314 12.354 27.522 25.758 40.817 39.188l7.588 7.626Q393.727 759.108 402.878 768.345c-10.898 13.007 -22.118 25.468 -34.173 37.41l-4.544 4.527a564.029 564.029 0 0 1 -30.944 28.354c-7.073 6.21 -13.583 12.918 -20.167 19.637 -5.41 5.304 -11.056 10.201 -16.826 15.108 -10.754 9.226 -19.517 19.364 -28.599 30.216h-2.878z" fill="#ffc90e"/>
	<path d="M181.295 238.849c11.269 3.755 13.059 8.555 19.246 18.527l5.427 8.622C210.072 273.381 210.072 273.381 210.072 279.137h5.755c12.745 21.378 12.745 21.378 14.388 31.655h5.755v5.755h5.755l2.158 -6.294c3.917 -8.817 9.036 -15.039 15.108 -22.483l2.878 -8.633h5.755l2.34 -6.331c3.378 -7.968 7.269 -14.705 12.049 -21.905l4.498 -6.892L290.647 238.849h5.755v187.05H181.295z" fill="#3f48cc"/>
	<path d="M256.115 624.46c10.978 2.745 13.312 3.588 20.863 10.858l5.252 4.987 5.54 5.378 11.669 11.108 5.83 5.58c7.623 7.252 15.373 14.351 23.148 21.442l8.386 7.678q6.532 5.98 13.082 11.942A1717.986 1717.986 0 0 1 417.266 768.345c-12.224 14.596 -24.99 28.308 -38.489 41.727l-5.419 5.453c-10.881 10.858 -22.106 21.14 -33.738 31.186 -11.925 10.449 -23.332 21.468 -34.837 32.374A2368.345 2368.345 0 0 1 287.77 894.964l-5.508 5.18 -5.272 4.791 -4.636 4.271C267.626 912.23 267.626 912.23 256.115 912.23zm8.633 11.511v267.626c10.04 -10.032 10.04 -10.032 20.02 -20.121a572.662 572.662 0 0 1 34.849 -32.498c5.433 -4.82 10.547 -9.824 15.635 -15.007 6.647 -6.768 13.462 -13.094 20.685 -19.243 16.541 -14.227 31.64 -29.974 46.941 -45.505 -13.899 -16.734 -28.835 -32.144 -44.245 -47.482l-7.079 -7.117c-12.345 -12.322 -24.918 -24.127 -38.141 -35.494 -9.399 -8.325 -18.124 -17.306 -26.904 -26.273q-5.289 -5.401 -10.599 -10.783l-4.624 -4.725c-3.183 -3.704 -3.183 -3.704 -6.538 -3.378"/>
</svg>
